<svg xmlns="http://www.w3.org/2000/svg" xmlns:xlink="http://www.w3.org/1999/xlink" width="257" zoomAndPan="magnify" viewBox="0 0 192.75 199.499995" height="266" preserveAspectRatio="xMidYMid meet" version="1.0"><path fill="#000000" d="M 92.304688 9.292969 C 63.160156 11.425781 37.183594 27.554688 22.035156 52.921875 C 16.820312 61.660156 12.996094 72.023438 10.8125 83.335938 C 9.855469 88.277344 9.714844 90.460938 9.710938 100.359375 C 9.703125 112.40625 10.050781 115.464844 12.53125 125.207031 C 16.554688 141.035156 26.097656 156.8125 37.945312 167.230469 C 48.804688 176.78125 61.039062 182.863281 75.972656 186.128906 C 81.113281 187.25 82.644531 187.371094 92.070312 187.398438 C 103.40625 187.429688 106.222656 187.046875 114.824219 184.308594 C 129.191406 179.734375 141.695312 169.21875 147.695312 156.667969 C 151.144531 149.453125 152.851562 139.398438 151.925781 131.769531 C 149.453125 111.445312 135.84375 96.007812 114.082031 88.839844 C 109.308594 87.265625 101.457031 85.472656 99.289062 85.460938 C 98.574219 85.457031 97.988281 85.277344 97.988281 85.0625 C 97.988281 84.132812 122.921875 62.367188 127.21875 59.546875 C 128.855469 58.472656 128.511719 57.710938 125.800781 56.433594 C 120.6875 54.015625 114.785156 54.53125 107.496094 58.023438 C 102.292969 60.519531 98.359375 63.164062 92.378906 68.191406 C 89.695312 70.445312 87.441406 72.21875 87.375 72.128906 C 87.304688 72.042969 86.875 70.371094 86.421875 68.417969 C 84.152344 58.675781 78.878906 53.292969 71.578125 53.28125 C 69.269531 53.277344 68.539062 53.449219 68.308594 54.046875 C 68.148438 54.46875 68.898438 59.949219 69.980469 66.230469 C 71.058594 72.507812 72.28125 79.84375 72.691406 82.527344 L 73.441406 87.40625 L 72.21875 88.914062 C 61.867188 101.671875 56.363281 111.128906 53.445312 121.179688 C 51.992188 126.171875 51.863281 134.480469 53.171875 138.558594 C 57.628906 152.464844 74.1875 157.414062 85.769531 148.304688 C 88.105469 146.46875 91.097656 141.90625 92.15625 138.5625 C 93.597656 134.011719 93.3125 117.90625 91.53125 103.246094 L 91.25 100.929688 L 94.738281 101.246094 C 103.085938 102 112.796875 104.996094 119.289062 108.820312 C 134.695312 117.890625 140.332031 135.003906 132.9375 150.273438 C 131.304688 153.636719 130.242188 155.035156 126.441406 158.796875 C 122.804688 162.394531 121.042969 163.734375 117.632812 165.492188 C 109.066406 169.914062 102.023438 171.574219 91.835938 171.574219 C 81.675781 171.574219 72.722656 169.382812 62.714844 164.441406 C 43.453125 154.933594 30.871094 137.414062 26.203125 113.609375 C 24.914062 107.054688 25.003906 93.535156 26.375 86.402344 C 27.847656 78.757812 29.820312 72.945312 33.363281 65.816406 C 48.121094 36.121094 81.371094 19.945312 114.003906 26.578125 C 129.328125 29.695312 144.613281 38.675781 154.4375 50.332031 C 163.265625 60.8125 168.835938 72.753906 171.699219 87.347656 C 172.878906 93.363281 172.957031 94.5625 172.980469 107.929688 C 173.007812 120.839844 172.910156 122.664062 171.910156 128.039062 C 169.667969 140.101562 166.5625 150.105469 162.078125 159.703125 C 160.933594 162.152344 160.097656 164.253906 160.21875 164.375 C 160.777344 164.933594 168.136719 159.660156 171.417969 156.351562 C 180.65625 147.03125 185.765625 134.371094 187.953125 115.378906 C 188.820312 107.851562 188.324219 90.378906 187.046875 83.4375 C 183.558594 64.484375 175.253906 48.28125 162.371094 35.304688 C 150.75 23.59375 137.890625 16.191406 121.726562 11.90625 C 113.101562 9.621094 101.683594 8.605469 92.304688 9.292969 M 74.222656 113.5 C 69.789062 120.972656 67.277344 128.457031 67.96875 132.136719 C 68.445312 134.671875 70.273438 136.558594 72.257812 136.558594 C 76.164062 136.558594 77.347656 134.464844 77.359375 127.566406 C 77.367188 121.296875 76.6875 110.53125 76.28125 110.542969 C 76.109375 110.546875 75.183594 111.878906 74.222656 113.5 " fill-opacity="1" fill-rule="evenodd"/><path fill="#000000" d="M 92.304688 9.292969 C 63.160156 11.425781 37.183594 27.554688 22.035156 52.921875 C 16.820312 61.660156 12.996094 72.023438 10.8125 83.335938 C 9.855469 88.277344 9.714844 90.460938 9.710938 100.359375 C 9.703125 112.40625 10.050781 115.464844 12.53125 125.207031 C 16.554688 141.035156 26.097656 156.8125 37.945312 167.230469 C 48.804688 176.78125 61.039062 182.863281 75.972656 186.128906 C 81.113281 187.25 82.644531 187.371094 92.070312 187.398438 C 103.40625 187.429688 106.222656 187.046875 114.824219 184.308594 C 129.191406 179.734375 141.695312 169.21875 147.695312 156.667969 C 151.144531 149.453125 152.851562 139.398438 151.925781 131.769531 C 149.453125 111.445312 135.84375 96.007812 114.082031 88.839844 C 109.308594 87.265625 101.457031 85.472656 99.289062 85.460938 C 98.574219 85.457031 97.988281 85.277344 97.988281 85.0625 C 97.988281 84.132812 122.921875 62.367188 127.21875 59.546875 C 128.855469 58.472656 128.511719 57.710938 125.800781 56.433594 C 120.6875 54.015625 114.785156 54.53125 107.496094 58.023438 C 102.292969 60.519531 98.359375 63.164062 92.378906 68.191406 C 89.695312 70.445312 87.441406 72.21875 87.375 72.128906 C 87.304688 72.042969 86.875 70.371094 86.421875 68.417969 C 84.152344 58.675781 78.878906 53.292969 71.578125 53.28125 C 69.269531 53.277344 68.539062 53.449219 68.308594 54.046875 C 68.148438 54.46875 68.898438 59.949219 69.980469 66.230469 C 71.058594 72.507812 72.28125 79.84375 72.691406 82.527344 L 73.441406 87.40625 L 72.21875 88.914062 C 61.867188 101.671875 56.363281 111.128906 53.445312 121.179688 C 51.992188 126.171875 51.863281 134.480469 53.171875 138.558594 C 57.628906 152.464844 74.1875 157.414062 85.769531 148.304688 C 88.105469 146.46875 91.097656 141.90625 92.15625 138.5625 C 93.597656 134.011719 93.3125 117.90625 91.53125 103.246094 L 91.25 100.929688 L 94.738281 101.246094 C 103.085938 102 112.796875 104.996094 119.289062 108.820312 C 134.695312 117.890625 140.332031 135.003906 132.9375 150.273438 C 131.304688 153.636719 130.242188 155.035156 126.441406 158.796875 C 122.804688 162.394531 121.042969 163.734375 117.632812 165.492188 C 109.066406 169.914062 102.023438 171.574219 91.835938 171.574219 C 81.675781 171.574219 72.722656 169.382812 62.714844 164.441406 C 43.453125 154.933594 30.871094 137.414062 26.203125 113.609375 C 24.914062 107.054688 25.003906 93.535156 26.375 86.402344 C 27.847656 78.757812 29.820312 72.945312 33.363281 65.816406 C 48.121094 36.121094 81.371094 19.945312 114.003906 26.578125 C 129.328125 29.695312 144.613281 38.675781 154.4375 50.332031 C 163.265625 60.8125 168.835938 72.753906 171.699219 87.347656 C 172.878906 93.363281 172.957031 94.5625 172.980469 107.929688 C 173.007812 120.839844 172.910156 122.664062 171.910156 128.039062 C 169.667969 140.101562 166.5625 150.105469 162.078125 159.703125 C 160.933594 162.152344 160.097656 164.253906 160.21875 164.375 C 160.777344 164.933594 168.136719 159.660156 171.417969 156.351562 C 180.65625 147.03125 185.765625 134.371094 187.953125 115.378906 C 188.820312 107.851562 188.324219 90.378906 187.046875 83.4375 C 183.558594 64.484375 175.253906 48.28125 162.371094 35.304688 C 150.75 23.59375 137.890625 16.191406 121.726562 11.90625 C 113.101562 9.621094 101.683594 8.605469 92.304688 9.292969 M 74.222656 113.5 C 69.789062 120.972656 67.277344 128.457031 67.96875 132.136719 C 68.445312 134.671875 70.273438 136.558594 72.257812 136.558594 C 76.164062 136.558594 77.347656 134.464844 77.359375 127.566406 C 77.367188 121.296875 76.6875 110.53125 76.28125 110.542969 C 76.109375 110.546875 75.183594 111.878906 74.222656 113.5 " fill-opacity="1" fill-rule="evenodd"/></svg>